<svg version="1.1" xmlns="http://www.w3.org/2000/svg" style="display: block;" viewBox="0 0 2048 1331" width="1280" height="832" preserveAspectRatio="none">
<path transform="translate(0,0)" fill="rgb(255,255,255)" d="M 0 0 L 338.097 0 L 1236.86 0 L 1264.22 0 L 1269.65 0 L 1344.37 0 L 1350.12 0 L 1392.84 0 L 1399.46 0 L 1445.2 0 L 1451.66 0 L 1519.65 0 L 1525.83 0 L 1546.5 0 L 1551.14 0 L 1646.45 0 L 1654.75 0 L 1744.92 0 L 1750.74 0 L 1815.56 0 L 2048 0 L 2048 1331 L 0 1331 L 0 0 z"/>
<path transform="translate(0,0)" fill="rgb(17,24,39)" d="M 338.097 0 L 1236.86 0 L 1264.22 0 L 1269.65 0 L 1344.37 0 L 1350.12 0 L 1392.84 0 L 1399.46 0 L 1445.2 0 L 1451.66 0 L 1519.65 0 L 1525.83 0 L 1546.5 0 L 1551.14 0 L 1646.45 0 L 1654.75 0 L 1744.92 0 L 1750.74 0 L 1815.56 0 C 1812.57 72.0541 1787.38 91.6389 1742.8 144.668 C 1727.11 163.33 1707.74 186.572 1690.17 203.014 C 1624.41 264.561 1525.15 248.854 1468.18 323.939 L 1467.95 453.81 C 1467.95 483.116 1467.48 513.82 1468.33 543.032 C 1473.54 549.484 1478.91 557.195 1483.69 564.035 C 1511.25 603.512 1543.74 640.46 1568.52 681.68 C 1572.44 688.198 1572.55 703.833 1571.76 711.244 C 1571.65 712.204 1571.5 713.158 1571.31 714.105 C 1534.07 786.84 1461.22 777.138 1392.21 777.12 L 1286.01 777.054 L 969 776.9 L 697.369 777.045 C 660.729 776.974 612.803 778.34 577.257 776.852 L 425.637 777.017 C 359.379 777.001 270.811 789.701 232.576 721.689 C 232.051 719.472 227.274 701.479 226.967 701 C 222.363 677.486 255.731 643.722 270.015 626.337 L 337.685 544.256 C 337.431 538.464 337.576 535.731 338.155 529.936 C 338.845 524.765 338.313 491.216 338.309 484.009 L 338.323 379.497 L 338.097 0 z"/>
<path transform="translate(0,0)" fill="rgb(15,254,228)" d="M 1468.33 543.032 C 1473.54 549.484 1478.91 557.195 1483.69 564.035 C 1511.25 603.512 1543.74 640.46 1568.52 681.68 C 1572.44 688.198 1572.55 703.833 1571.76 711.244 C 1571.65 712.204 1571.5 713.158 1571.31 714.105 C 1534.07 786.84 1461.22 777.138 1392.21 777.12 L 1286.01 777.054 L 969 776.9 L 697.369 777.045 C 660.729 776.974 612.803 778.34 577.257 776.852 C 556.421 763.251 556.972 759.495 553.274 735.187 C 566.683 698.281 641.249 704.959 670.692 685.052 C 699.44 665.616 661.559 646.428 693.571 627.626 C 736.181 602.6 867.75 632.407 881.384 573.071 C 877.665 557.374 870.785 552.982 858.627 543.192 L 1003.94 543.269 C 1045.72 583.94 1090.61 606.273 1150.14 605.156 C 1205.46 604.118 1246.17 583.294 1284.36 544.246 C 1284.67 543.921 1284.99 543.594 1285.3 543.265 L 1468.33 543.032 z"/>
<path transform="translate(0,0)" fill="rgb(245,158,11)" d="M 1208.12 625.483 C 1258.93 625.319 1359.48 629.339 1401.52 665.15 C 1405.6 668.604 1410.04 677.151 1409.17 682.184 C 1405.4 704.077 1378.02 716.115 1356.8 722.526 C 1294.48 741.358 1222.57 744.229 1157.76 738.845 C 1124.8 736.918 1077.11 727.995 1047.38 713.448 C 1032.79 706.309 1023.48 698.603 1018.38 683.151 C 1020.11 676.117 1020.76 673.775 1023.87 667.282 C 1013.8 667.261 975.761 666.361 974.085 651.263 C 972.37 635.812 1004.69 629.415 1016.22 628.817 C 1035.74 627.805 1054.83 629.264 1070.59 642.906 C 1121.9 628.926 1155.44 626.506 1208.12 625.483 z"/>
<path transform="translate(0,0)" fill="rgb(228,245,236)" d="M 794.142 663.459 C 814.137 663.89 878.259 670.027 879.383 699.629 C 880.473 728.323 822.875 736.737 799.857 737.292 C 690.454 736.724 683.797 668.369 794.142 663.459 z"/>
<path transform="translate(0,0)" fill="rgb(228,245,236)" d="M 338.155 529.936 C 338.409 534.381 338.695 538.603 338.625 543.06 L 858.627 543.192 C 870.785 552.982 877.665 557.374 881.384 573.071 C 867.75 632.407 736.181 602.6 693.571 627.626 C 661.559 646.428 699.44 665.616 670.692 685.052 C 641.249 704.959 566.683 698.281 553.274 735.187 C 556.972 759.495 556.421 763.251 577.257 776.852 L 425.637 777.017 C 359.379 777.001 270.811 789.701 232.576 721.689 C 232.051 719.472 227.274 701.479 226.967 701 C 222.363 677.486 255.731 643.722 270.015 626.337 L 337.685 544.256 C 337.431 538.464 337.576 535.731 338.155 529.936 z"/>
<path transform="translate(0,0)" fill="rgb(228,245,236)" d="M 604.152 43.7309 C 606.536 47.436 611.516 58.4339 613.799 63.0771 C 620.047 75.886 626.431 88.6286 632.949 101.303 L 660.242 153.049 C 666.175 164.247 672.878 175.634 677.431 187.438 C 699.154 243.749 662.055 295.43 603.485 298.923 C 592.488 298.764 581.624 296.503 571.476 292.263 C 551.301 283.732 536.585 268.943 528.246 248.572 C 509.448 202.65 543.317 162.298 563.539 123.773 C 577.55 97.0797 592.045 71.3794 604.152 43.7309 z"/>
<path transform="translate(0,0)" fill="rgb(228,245,236)" d="M 744.537 221.508 C 746.549 223.037 785.1 302.686 789.835 312.658 C 806.346 347.442 785.755 388.015 743.498 390.377 C 707.697 388.878 684.286 359.415 693.476 324.739 C 698.081 307.36 711.515 286.639 720.346 270.371 C 729.111 254.44 737.182 238.137 744.537 221.508 z"/>
<path transform="translate(0,0)" fill="rgb(17,24,39)" d="M 1571.31 714.105 C 1563.69 773.507 1552.45 836.918 1543.41 896.335 L 1531.94 974.243 C 1527.29 1005.87 1525.52 1029.64 1512.79 1059.4 C 1496.33 1097.89 1469.78 1131.05 1436.76 1156.62 C 1403.32 1182.62 1363.72 1199.5 1321.81 1205.61 C 1298.06 1209.06 1274.68 1208.44 1250.76 1208.41 L 1171.27 1208.33 L 898.105 1208.32 L 620.274 1208.36 L 540.045 1208.35 C 518.914 1208.37 496.853 1209.01 475.972 1206.28 C 412.479 1198.26 354.744 1165.43 315.395 1114.96 C 298.215 1092.7 285.249 1067.48 277.136 1040.56 C 270.003 1016.82 265.637 974.053 261.61 947.648 L 229.38 724.727 L 232.576 721.689 C 270.811 789.701 359.379 777.001 425.637 777.017 L 577.257 776.852 C 612.803 778.34 660.729 776.974 697.369 777.045 L 969 776.9 L 1286.01 777.054 L 1392.21 777.12 C 1461.22 777.138 1534.07 786.84 1571.31 714.105 z"/>
<path transform="translate(0,0)" fill="rgb(228,245,236)" d="M 361.911 857.884 L 1437.31 858.092 L 1427.84 918.684 C 1426.92 924.656 1423.58 944.974 1423.84 949.769 L 717.863 949.789 L 491.714 949.862 C 454.889 949.873 409.614 948.574 373.683 950.167 C 369.467 919.444 365.543 888.682 361.911 857.884 z"/>
<path transform="translate(0,0)" fill="rgb(228,245,236)" d="M 900.36 961.179 C 937.253 962.143 977.956 961.149 1015.21 961.195 L 1293.08 961.407 L 1377.18 961.934 C 1390.54 962.014 1408.72 961.516 1421.51 962.282 C 1419.05 980.823 1411.76 1020.45 1397.94 1033.81 C 1333.78 1032.98 1267.79 1033.84 1203.43 1033.77 L 744.565 1033.71 L 514.376 1033.71 L 441.23 1033.71 C 428.326 1033.72 410.979 1033.26 398.406 1034.31 C 383.917 1021.99 377.393 980.125 374.985 961.889 L 715.101 961.587 L 833.407 961.658 C 853.845 961.662 880.278 962.3 900.36 961.179 z"/>
<path transform="translate(0,0)" fill="rgb(228,245,236)" d="M 404.796 1045.2 L 1017.39 1044.99 L 1267.26 1045.03 C 1307.81 1045.08 1349.97 1044.57 1390.36 1045.3 C 1388.41 1055.29 1363.6 1075.88 1355.26 1082.47 C 1313.66 1115.37 1271.22 1113.62 1220.92 1113.78 L 1141.26 1113.91 L 872.451 1113.87 L 637.045 1113.9 L 569.07 1113.91 C 494.184 1113.88 452.448 1108.53 404.796 1045.2 z"/>
<path transform="translate(0,0)" fill="rgb(112,126,98)" d="M 226.967 701 C 227.274 701.479 232.051 719.472 232.576 721.689 L 229.38 724.727 C 227.501 715.425 227.989 708.909 226.967 701 z"/>
<path transform="translate(0,0)" fill="rgb(245,158,11)" d="M 1818.59 969.09 L 1819.82 968.953 C 1834.64 967.371 1836.69 973.865 1843.43 985.16 C 1849.77 995.767 1855.91 1006.56 1862.12 1017.24 C 1879.25 1046.07 1896.1 1075.06 1912.69 1104.21 C 1927.01 1128.96 1941.99 1153.27 1955.64 1178.43 C 1961.57 1189.38 1957.07 1203.7 1943.79 1205.26 C 1930.47 1206.82 1915.71 1206.03 1902.19 1205.96 L 1828.5 1205.76 L 1702.06 1205.82 C 1687.97 1198.24 1685.89 1189.87 1693.6 1176.24 C 1699.82 1165.24 1706.09 1154.26 1712.46 1143.34 L 1764.42 1054.96 C 1779.91 1028.74 1795.07 1001.78 1811.03 975.829 C 1812.99 972.646 1815.47 970.972 1818.59 969.09 z"/>
<path transform="translate(0,0)" fill="rgb(255,255,255)" d="M 1821.84 974.88 L 1828.42 976.005 C 1831.04 977.912 1832.98 980.882 1834.61 983.693 C 1873.39 1050.76 1914.04 1117.36 1950.91 1185.34 C 1952.62 1188.49 1949.81 1193.35 1948.09 1196.07 C 1940.93 1200.59 1910.05 1199.16 1899.59 1199.15 L 1827.5 1199.04 L 1745.28 1198.96 C 1741.01 1198.95 1736.07 1199.11 1731.82 1198.95 C 1709.17 1198.09 1684.41 1204.25 1703.9 1171.89 C 1715.35 1152.87 1727.68 1131.39 1739.23 1111.61 L 1792.49 1020.46 C 1797.82 1011.39 1815.07 978.886 1821.84 974.88 z"/>
<path transform="translate(0,0)" fill="rgb(245,158,11)" d="M 1816.56 1028.2 C 1825.22 1027.69 1843.4 1027.48 1842.89 1040.2 C 1842.3 1054.78 1839.16 1120.24 1832.24 1128.81 C 1827.27 1131.21 1815.01 1132.47 1814.07 1126.05 C 1809.8 1097.08 1807.07 1065.35 1807.5 1036.15 C 1807.55 1032.95 1813.97 1029.31 1816.56 1028.2 z"/>
<path transform="translate(0,0)" fill="rgb(245,158,11)" d="M 1820.43 1142.51 C 1828.92 1140.76 1837.2 1146.27 1838.88 1154.76 C 1840.56 1163.26 1834.98 1171.5 1826.47 1173.11 C 1818.06 1174.69 1809.94 1169.2 1808.28 1160.8 C 1806.62 1152.4 1812.05 1144.24 1820.43 1142.51 z"/>
</svg>