<svg version="1.1" xmlns="http://www.w3.org/2000/svg" style="display: block;" viewBox="0 0 2048 1331" width="1280" height="832" preserveAspectRatio="none"><metadata><c2pa:manifest xmlns:c2pa="http://c2pa.org/manifest">AAAMfWp1bWIAAAAeanVtZGMycGEAEQAQgAAAqgA4m3EDYzJwYQAAAAxXanVtYgAAAEdqdW1kYzJtYQARABCAAACqADibcQN1cm46YzJwYToxMjk5NGEyYy1kMTg1LTQ4MGUtYjhhMi1lMDBiZTNjYWY3YTEAAAAB4mp1bWIAAAApanVtZGMyYXMAEQAQgAAAqgA4m3EDYzJwYS5hc3NlcnRpb25zAAAAAO1qdW1iAAAAQWp1bWRjYm9yABEAEIAAAKoAOJtxE2MycGEuYWN0aW9ucy52MgAAAAAYYzJzaNoRF3bhomvk9ulxkUOb1u8AAACkY2JvcqFnYWN0aW9uc4GjZmFjdGlvbmxjMnBhLmNyZWF0ZWRxZGlnaXRhbFNvdXJjZVR5cGV4Rmh0dHA6Ly9jdi5pcHRjLm9yZy9uZXdzY29kZXMvZGlnaXRhbHNvdXJjZXR5cGUvdHJhaW5lZEFsZ29yaXRobWljTWVkaWFrZGVzY3JpcHRpb252Q3JlYXRlZCBieSBSZWNyYWZ0IEFJLgAAAMRqdW1iAAAAQGp1bWRjYm9yABEAEIAAAKoAOJtxE2MycGEuaGFzaC5kYXRhAAAAABhjMnNobbnKPwdxHSMnm5KDoRCXPAAAAHxjYm9ypWpleGNsdXNpb25zgaJlc3RhcnQY2mZsZW5ndGgZEKhkbmFtZW5qdW1iZiBtYW5pZmVzdGNhbGdmc2hhMjU2ZGhhc2hYIBbKk1RwboDRj+V35343vU7CW5dYlg1CQkMmI4W9h1m8Y3BhZEkAAAAAAAAAAAAAAAJKanVtYgAAACdqdW1kYzJjbAARABCAAACqADibcQNjMnBhLmNsYWltLnYyAAAAAhtjYm9yp2ppbnN0YW5jZUlEeCx4bXA6aWlkOmQ5ZGFmNWI5LTg0Y2QtNGU1ZS05MDRkLTUzOTdmZTVhMjUxOXRjbGFpbV9nZW5lcmF0b3JfaW5mb79kbmFtZWpyZWNyYWZ0LmFpZ3ZlcnNpb254KDgxY2U4MmUyYzVjM2NiZmJlOGM2ZmJlMTc5ZDVmOGQ5MWM0MDljZTF3b3JnLmNvbnRlbnRhdXRoLmMycGFfcnNmMC43Mi4w/2lzaWduYXR1cmV4TXNlbGYjanVtYmY9L2MycGEvdXJuOmMycGE6MTI5OTRhMmMtZDE4NS00ODBlLWI4YTItZTAwYmUzY2FmN2ExL2MycGEuc2lnbmF0dXJlcmNyZWF0ZWRfYXNzZXJ0aW9uc4GiY3VybHgpc2VsZiNqdW1iZj1jMnBhLmFzc2VydGlvbnMvYzJwYS5oYXNoLmRhdGFkaGFzaFggtCe9PWNlgQ8Kq2HWqa67gwC6gVi/tvv3GPmiGwjEszRzZ2F0aGVyZWRfYXNzZXJ0aW9uc4GiY3VybHgqc2VsZiNqdW1iZj1jMnBhLmFzc2VydGlvbnMvYzJwYS5hY3Rpb25zLnYyZGhhc2hYINuN/Nvynszvc8psyQGdZ2eKmAyHcDOzk3ODvOnPaOEBaGRjOnRpdGxleBpSZWNyYWZ0IEFJIEdlbmVyYXRlZCBJbWFnZWNhbGdmc2hhMjU2AAAH3Gp1bWIAAAAoanVtZGMyY3MAEQAQgAAAqgA4m3EDYzJwYS5zaWduYXR1cmUAAAAHrGNib3LShFkDsKIBJhghglkB5zCCAeMwggGJoAMCAQICCQC33lpjQ1FuejAKBggqhkjOPQQDAjBAMR8wHQYDVQQDDBZSZWNyYWZ0IFN0YWdpbmcgRGV2IENBMRAwDgYDVQQKDAdSZWNyYWZ0MQswCQYDVQQGEwJVUzAeFw0yNjA2MTIxOTQzNTBaFw0yNzA2MTIxOTQzNTBaMDcxCzAJBgNVBAYTAlVTMRMwEQYDVQQKEwpSZWNyYWZ0IEFJMRMwEQYDVQQDEwpyZWNyYWZ0LmFpMFkwEwYHKoZIzj0CAQYIKoZIzj0DAQcDQgAESmk1WwArIPw3hty3jsWHSA/1QOhBRu9xOjpJ2/iiIghScoEVM+Lnjds/7dqmG+giFL0vEb4DoogpX6KrGLcPNaN1MHMwDAYDVR0TAQH/BAIwADAOBgNVHQ8BAf8EBAMCBsAwEwYDVR0lBAwwCgYIKwYBBQUHAwQwHQYDVR0OBBYEFC8x6QXp/eki9cuCDx2vDJDLIV39MB8GA1UdIwQYMBaAFAILKjgayqqXSv/5v5MWaO2UeHm3MAoGCCqGSM49BAMCA0gAMEUCIFPISltGl775PEkIFRTZGsevWJvWnvBrE9kWU0MPgedQAiEAtA+AZBKEQ+DdK9mUZDctB2Wlt1iAsv0GRjfeYpReMsxZAb0wggG5MIIBX6ADAgECAgkAnPloO0+gE28wCgYIKoZIzj0EAwIwQDEfMB0GA1UEAwwWUmVjcmFmdCBTdGFnaW5nIERldiBDQTEQMA4GA1UECgwHUmVjcmFmdDELMAkGA1UEBhMCVVMwHhcNMjYwNjEyMTk0MDE2WhcNMjgwNjExMTk0MDE2WjBAMR8wHQYDVQQDDBZSZWNyYWZ0IFN0YWdpbmcgRGV2IENBMRAwDgYDVQQKDAdSZWNyYWZ0MQswCQYDVQQGEwJVUzBZMBMGByqGSM49AgEGCCqGSM49AwEHA0IABEPSEAZXFWymij2K0EnzoS/9NLO8VAwu0YpyLizvyNZPfcvcoeqFhfZD8Wj/rcdb9T3ji98q1arie99B9GRog8qjQjBAMA8GA1UdEwEB/wQFMAMBAf8wDgYDVR0PAQH/BAQDAgGGMB0GA1UdDgQWBBQCCyo4Gsqql0r/+b+TFmjtlHh5tzAKBggqhkjOPQQDAgNIADBFAiBUMDSJi5WA3kIY4BfmYqk24HLs0qpjicN0NpUP4bvNxQIhAPTvHC5v8X6FS6geI7XW7h84t1i/qdkTfg0RpMKWLMFboWNwYWRZA6QAAAAAAAAAAAAAAAAAAAAAAAAAAAAAAAAAAAAAAAAAAAAAAAAAAAAAAAAAAAAAAAAAAAAAAAAAAAAAAAAAAAAAAAAAAAAAAAAAAAAAAAAAAAAAAAAAAAAAAAAAAAAAAAAAAAAAAAAAAAAAAAAAAAAAAAAAAAAAAAAAAAAAAAAAAAAAAAAAAAAAAAAAAAAAAAAAAAAAAAAAAAAAAAAAAAAAAAAAAAAAAAAAAAAAAAAAAAAAAAAAAAAAAAAAAAAAAAAAAAAAAAAAAAAAAAAAAAAAAAAAAAAAAAAAAAAAAAAAAAAAAAAAAAAAAAAAAAAAAAAAAAAAAAAAAAAAAAAAAAAAAAAAAAAAAAAAAAAAAAAAAAAAAAAAAAAAAAAAAAAAAAAAAAAAAAAAAAAAAAAAAAAAAAAAAAAAAAAAAAAAAAAAAAAAAAAAAAAAAAAAAAAAAAAAAAAAAAAAAAAAAAAAAAAAAAAAAAAAAAAAAAAAAAAAAAAAAAAAAAAAAAAAAAAAAAAAAAAAAAAAAAAAAAAAAAAAAAAAAAAAAAAAAAAAAAAAAAAAAAAAAAAAAAAAAAAAAAAAAAAAAAAAAAAAAAAAAAAAAAAAAAAAAAAAAAAAAAAAAAAAAAAAAAAAAAAAAAAAAAAAAAAAAAAAAAAAAAAAAAAAAAAAAAAAAAAAAAAAAAAAAAAAAAAAAAAAAAAAAAAAAAAAAAAAAAAAAAAAAAAAAAAAAAAAAAAAAAAAAAAAAAAAAAAAAAAAAAAAAAAAAAAAAAAAAAAAAAAAAAAAAAAAAAAAAAAAAAAAAAAAAAAAAAAAAAAAAAAAAAAAAAAAAAAAAAAAAAAAAAAAAAAAAAAAAAAAAAAAAAAAAAAAAAAAAAAAAAAAAAAAAAAAAAAAAAAAAAAAAAAAAAAAAAAAAAAAAAAAAAAAAAAAAAAAAAAAAAAAAAAAAAAAAAAAAAAAAAAAAAAAAAAAAAAAAAAAAAAAAAAAAAAAAAAAAAAAAAAAAAAAAAAAAAAAAAAAAAAAAAAAAAAAAAAAAAAAAAAAAAAAAAAAAAAAAAAAAAAAAAAAAAAAAAAAAAAAAAAAAAAAAAAAAAAAAAAAAAAAAAAAAAAAAAAAAAAAAAAAAAAAAAAAAAAAAAAAAAAAAAAAAAAAAAAAAAAAAAAAAAAAAAAAAAAAAAAAAAAAAAAAAAAAAAAAAAAAAAAAAAAAAAAAAAAAAAAAAAAAAAAAAAAAAAAAAAAAAAAAAAAAAPZYQH2uHeDpiQSidk+x2rZGX8Vjp6eZdYORo+xRD7F7lT4f5qOtpi7KVqpL4Kk61pY9nsY+b4jUL99zPa0epFfL0PQ=</c2pa:manifest></metadata>
<path transform="translate(0,0)" fill="rgb(255,255,255)" d="M 0 0 L 2048 0 L 2048 1331 L 0 1331 L 0 0 z"/>
<path transform="translate(0,0)" fill="rgb(15,12,104)" d="M 815.053 443.96 C 876.417 426.388 938.59 405.842 999.727 387.119 L 1511.62 228.132 L 1678.35 176.013 C 1690.69 172.26 1720.91 160.285 1731.41 161.747 L 1731.63 163.411 L 1732.55 162.409 C 1726.01 167.799 1611.95 201.692 1596.68 206.503 L 1051.55 376.3 L 916.288 418.166 C 883.266 428.545 846.069 440.977 812.787 449.724 C 806.625 460.237 795.551 474.441 787.955 484.051 C 786.676 498.344 789.469 546.107 779.546 553.733 C 771.834 555.477 760.045 546.639 753.181 542.422 C 730.875 577.972 717.584 609.974 669.21 586.965 C 662.402 597.576 654.673 611.713 648.139 622.899 C 651.197 627.788 656.926 636.651 660.802 640.458 C 669.473 648.976 678.126 654.477 685.811 664.39 C 717.298 705.005 747.346 747.616 779.618 787.562 C 793.782 776.072 805.496 763.063 819.123 751.82 L 830.788 754.352 C 832.608 730.578 834.035 707.282 836.155 683.473 C 851.139 668.117 876.831 648.128 888.245 632.212 C 900.564 615.032 940.454 537.454 949.807 531.024 C 953.497 528.488 958.063 527.46 962.445 528.416 C 975.39 531.239 1020.89 542.298 1026.55 552.447 C 1033.66 565.213 1010.86 585.712 1007.31 597.507 C 1027.73 606.006 1006.04 620.854 1001.62 630.817 C 996.131 643.194 1001.24 662.059 995.975 674.551 C 990.048 688.604 978.536 701.085 971.615 714.753 C 967.116 723.602 966.776 734.348 963.491 744.296 C 941.923 761.541 911.056 787.24 890.795 805.537 C 897.663 827.941 900.578 846.787 885.672 867.066 C 870.822 887.268 852.484 904.104 834.765 921.721 C 842.697 931.059 849.666 940.354 857.973 949.659 C 897.665 843.639 981.081 744.62 1084.72 696.516 C 1131.32 674.888 1202.14 665.471 1226.25 723.607 C 1244.85 768.469 1229.25 814.887 1212.57 857.499 C 1235.5 848.506 1258.54 839.784 1281.67 831.333 C 1308.21 843.895 1350.83 859.431 1379.21 870.593 L 1556.46 941.057 C 1573.32 907.881 1596.05 871.26 1614.95 838.512 L 1727.07 645.335 L 1992.98 186.719 C 1995.16 183.015 1998.46 176.804 2002.21 174.932 L 2001.01 175.334 L 2002.53 176.043 C 2002.63 179.208 1999.9 186.93 1998.26 189.556 C 1987.52 206.779 1977.24 224.773 1967.07 242.349 L 1888.04 378.949 L 1654.84 780.413 C 1622.24 835.606 1590.19 891.122 1558.7 946.951 C 1551.53 958.986 1545.01 970.802 1537.38 982.649 C 1488.11 1059.18 1380.7 1043.71 1302.4 1061.98 C 1272.62 1068.94 1241.03 1075.68 1210.49 1082.5 C 1160.79 1093.62 1111.02 1104.41 1061.17 1114.87 C 859.931 1158.85 658.19 1200.52 455.99 1239.88 L 287.491 1273.42 C 254.128 1280.13 217.148 1288.86 183.484 1292.32 C 164.279 1294.29 135.05 1289.27 117.604 1280.64 C 116.615 1280.21 115.633 1279.75 114.66 1279.28 C 78.8025 1261.96 49.3968 1228.49 51.7138 1186.48 C 53.3509 1156.79 57.1725 1126.65 59.934 1096.98 L 75.7273 926.326 L 89.8844 772 C 92.672 743.604 92.9789 706.296 105.303 681.213 C 115.618 659.963 132.264 642.431 152.951 631.03 C 173.659 619.599 227.03 606.917 252.071 600.001 L 411.637 556.217 C 444.318 547.515 490.027 536.594 521.117 526.068 C 478.268 520.97 443.5 503.296 422.477 464.116 C 407.707 436.591 404.742 408.236 414.147 378.35 C 423.757 348.488 444.695 323.585 472.464 308.991 C 500.278 294.638 534.016 291.582 563.739 301.967 C 581.239 308.081 591.857 315.066 611.357 314.178 C 639.378 313.229 662.546 295.296 689.571 290.26 C 747.388 279.487 809.77 313.556 822.838 373.014 C 828.379 398.223 822.882 420.376 815.053 443.96 z"/>
<path transform="translate(0,0)" fill="rgb(75,206,158)" d="M 227.537 1254.19 L 162.937 910.261 L 143.213 806.304 C 139.895 788.675 135.651 769.199 133.811 751.612 C 132.448 732.913 146.097 710.416 163.448 703.614 C 186.643 694.522 211.941 690.202 236.04 684.054 C 281.806 672.38 328.088 661.943 373.653 649.698 C 354.482 666.026 340.804 681.32 331.637 705.385 C 324.277 724.708 324.785 742.473 321.313 762.732 C 316.588 790.303 311.755 817.896 306.935 845.464 L 276.838 1015.51 C 273.29 1035.85 264.845 1077.2 263.229 1096.53 C 271.498 1105.63 277.262 1108.7 287.775 1114.33 L 287.591 1114.93 C 274.538 1158.59 285.199 1199.75 306.423 1238.7 C 343.596 1230.7 380.994 1224.38 418.399 1217.56 L 630.681 1178.71 L 826.799 1142.65 C 873.427 1133.79 931.243 1121.18 977.549 1114.94 C 993.939 1016.81 1076.96 915.935 1169.15 879.483 C 1205.22 865.219 1244.61 850.13 1281.28 837.623 C 1304.09 845.305 1330.57 857.466 1353.62 866.286 C 1421.39 892.218 1490.41 922.877 1558.7 946.951 C 1551.53 958.986 1545.01 970.802 1537.38 982.649 C 1488.11 1059.18 1380.7 1043.71 1302.4 1061.98 C 1272.62 1068.94 1241.03 1075.68 1210.49 1082.5 C 1160.79 1093.62 1111.02 1104.41 1061.17 1114.87 C 859.931 1158.85 658.19 1200.52 455.99 1239.88 L 287.491 1273.42 C 254.128 1280.13 217.148 1288.86 183.484 1292.32 C 164.279 1294.29 135.05 1289.27 117.604 1280.64 C 128.797 1275.21 149.977 1271 162.648 1268.17 L 227.537 1254.19 z"/>
<path transform="translate(0,0)" fill="rgb(255,255,255)" d="M 478.349 599.789 C 485.072 600.993 561.736 690.591 576.679 700.473 C 579.835 702.56 582.166 702.987 585.888 702.135 C 592.376 697.99 612.697 652.64 618.333 641.792 C 625.621 654.414 638.184 687.065 648.348 692.275 C 653.388 692.558 655.135 690.107 656.149 685.228 C 658.622 673.316 659.37 660.4 661.415 648.402 C 667.563 653.385 673.177 656.891 678.056 663.448 C 709.647 705.9 744.916 748.293 775.168 791.518 C 752.33 815.414 717.637 844.391 692.481 867.554 C 693.69 834.558 694.621 801.553 695.276 768.541 C 695.493 759.427 698.028 728.203 694.922 721.716 L 693.773 722.245 C 689.765 730.705 690.36 765.162 690.054 776.035 C 689.285 808.154 688.312 840.268 687.135 872.374 C 661.743 894.878 636.953 918.277 611.421 940.883 L 524.276 801.829 C 514.795 786.724 477.746 722.635 467.62 714.911 C 466.775 714.266 466.628 714.536 465.636 714.685 C 466.566 721.766 490.453 756.647 495.621 765.25 C 531.89 825.619 571.321 884.318 607.641 944.647 C 600.654 951.731 575.174 971.992 573.425 978.862 L 574.757 979.815 C 579.394 979.075 777.908 796.677 800.002 776.48 C 819.076 785.731 833.902 795.343 849.287 809.767 C 866.683 828.141 872.804 839.128 882.739 862.37 C 863.573 885.813 846.766 901.646 825.535 923.036 L 763.955 985.835 L 685.356 1066.18 C 673.451 1078.14 661.643 1090.11 649.404 1101.7 C 618.908 1130.59 568.886 1133.56 534.349 1110.01 C 515.349 1097.06 503.201 1074.47 491.146 1055.21 L 457.199 1000.79 L 368.425 859.209 C 364.904 853.517 346.73 821.903 342.378 819.873 C 340.07 821.075 340.876 820.208 339.798 822.482 C 341.768 829.514 380.689 887.796 387.215 898.159 L 508.972 1093.7 C 455.964 1109.29 398.767 1125.19 343.041 1122.26 C 318.629 1120.98 284.523 1112.93 267.911 1094.12 C 275.005 1063.58 281.154 1021.01 286.702 989.142 L 322.068 789.787 C 326.607 765.18 327.862 738.481 333.822 714.998 C 345.791 667.843 385.132 647.257 423.923 628.063 C 442.305 619.107 460.453 609.679 478.349 599.789 z"/>
<path transform="translate(0,0)" fill="rgb(255,255,255)" d="M 1143.41 731.33 C 1198.66 726.363 1185.09 793.582 1172.98 825.472 C 1164.98 846.545 1155.71 862.983 1145.14 882.744 C 1134.46 886.06 1119.88 888.3 1108.65 890.455 C 1068.04 898.249 1031.49 902.598 990.238 898.133 C 976.396 897.167 959.885 893.529 945.712 891.511 C 952.342 880.633 959.494 870.081 967.142 859.893 C 1005.43 809.183 1077.57 740.491 1143.41 731.33 z"/>
<path transform="translate(0,0)" fill="rgb(255,255,255)" d="M 730.1 403.992 C 758.84 427.214 773.719 436.418 811.126 441.346 C 803.975 455.907 793.507 469.587 783.018 481.876 C 782.063 501.22 781.723 520.669 780.665 539.97 C 780.447 543.947 779.818 546.265 776.925 548.601 C 767.631 549.419 754.922 532.767 750.72 537.832 C 729.63 563.255 723.211 604.698 675.185 584.244 C 636.272 561.046 621.298 531.659 625.032 486.736 C 607.958 476.926 595.691 462.046 606.201 440.912 C 615.187 422.841 641.156 418.08 654.594 434.173 C 658.12 437.12 663.28 447.978 667.225 449.38 C 694.328 459.012 722.517 419.592 730.1 403.992 z"/>
<path transform="translate(0,0)" fill="rgb(255,255,255)" d="M 1006.06 603.461 C 1008.65 604.183 1008.51 604.212 1010.47 606.151 C 1010.65 612.903 971.812 662.154 966.952 671.448 C 965.398 674.421 962.797 675.381 965.547 678.93 C 970.358 677.924 989.606 647.215 994.271 640.443 C 994.105 648.973 993.998 662.837 991.475 670.555 C 986.531 685.683 973.395 699.31 966.591 713.767 C 962.706 722.021 961.153 731.882 959.368 740.846 C 944.774 753.334 930.022 765.636 915.116 777.75 C 907.125 784.328 895.324 793.384 888.632 800.826 C 878.809 784.652 870.897 774.86 854.805 764.342 C 848.367 760.414 842.883 758.195 835.707 756.075 C 837.962 733.269 839.103 709.172 841.015 686.078 C 847.921 677.877 900.698 627.096 907.073 625.764 L 908.776 626.947 C 910.132 630.141 910.586 631.533 909.129 635.01 C 901.388 653.478 890.811 670.798 883.313 689.428 C 904.493 680.943 944.132 665.539 962.731 652.347 C 965.323 650.508 978.355 634.377 981.54 630.56 C 989.331 621.19 997.51 612.149 1006.06 603.461 z"/>
<path transform="translate(0,0)" fill="rgb(255,255,255)" d="M 558.824 523.122 C 550.295 538.962 536.821 557.689 527.358 574.074 C 522.796 571.322 517.939 568.505 513.463 565.665 C 504.949 572.947 485.191 589.277 475.461 595.091 C 455.205 607.196 430.267 619.385 408.982 630.218 C 358.734 583.668 322.739 604.094 264.287 606.114 C 260.36 605.825 258.164 606.71 254.956 604.509 C 322.528 585.429 390.26 566.918 458.143 548.978 C 492.459 539.937 523.905 529.91 558.824 523.122 z"/>
<path transform="translate(0,0)" fill="rgb(255,255,255)" d="M 618.804 489.868 C 619.773 497.476 617.084 513.508 617.267 522.793 C 617.901 555.038 629.025 577.941 651.469 599.972 C 625.395 644.575 632.558 640.518 588.5 612.716 L 531.871 577.09 C 539.678 561.58 557.668 535.36 567.839 520.663 C 589.272 511.874 601.695 505.975 618.804 489.868 z"/>
<path transform="translate(0,0)" fill="rgb(255,255,255)" d="M 830.809 925.709 C 834.528 928.763 851.3 950.269 856.119 955.929 C 842.5 995.458 837.377 1023.12 837.817 1064.98 C 810.393 1061.17 810.164 1060.1 786.819 1044.89 C 772.93 1035.75 755.991 1023.99 741.696 1016.18 C 770.569 986.39 800.94 954.4 830.809 925.709 z"/>
<path transform="translate(0,0)" fill="rgb(255,255,255)" d="M 919.435 940.435 C 939.433 951.596 968.359 969.182 987.004 982.381 C 1001.23 992.454 1003.82 1006.58 1005.19 1022.63 C 993.978 1044.81 987.607 1057.22 980.764 1080.78 L 979.642 1081.85 C 967.632 1069.87 965.982 1042 940.703 1050.18 C 926.862 1035.28 912.119 1015.28 898.724 999.06 C 904.03 978.99 910.956 959.384 919.435 940.435 z"/>
<path transform="translate(0,0)" fill="rgb(255,255,255)" d="M 514.262 572.062 C 521.952 575.982 536.644 586.324 544.611 591.249 C 568.161 605.806 591.297 621.286 615.18 635.377 C 605.347 656.14 594.562 677.193 584.331 697.84 C 576.078 696.628 549.873 666.42 542.756 658.826 C 523.074 637.673 503.234 616.666 483.24 595.807 C 493.63 587.956 503.97 580.041 514.262 572.062 z"/>
<path transform="translate(0,0)" fill="rgb(255,255,255)" d="M 946.086 544.526 C 962.039 548.893 990.579 558.768 1005.79 565.128 C 994.564 585.911 980.539 605.433 969.132 626.164 C 964.107 635.298 958.428 645.837 951.626 653.677 C 950.077 655.463 939.5 659.808 936.736 661.002 C 930.326 663.895 923.308 666.724 916.793 669.485 L 899.859 667.345 C 904.115 656.427 922.183 631.798 911.555 621.606 C 909.545 619.678 904.361 620.911 901.602 621.228 L 901.719 621.144 C 903.544 616.643 913.028 601.586 915.993 596.528 L 946.086 544.526 z"/>
<path transform="translate(0,0)" fill="rgb(255,255,255)" d="M 819.733 757.972 C 829.692 760.016 835.729 760.794 845.181 765.313 C 874.541 779.35 895.563 811.798 890.139 844.854 C 889.604 848.114 889.225 851.737 886.387 853.815 C 883.997 852.627 884.236 851.531 883.005 848.463 C 865.696 811.102 839.419 790.657 803.844 772.863 C 808.186 768.232 814.929 762.387 819.733 757.972 z"/>
<path transform="translate(0,0)" fill="rgb(255,255,255)" d="M 900.822 1053.12 C 907.198 1052.67 920.138 1052.07 924.965 1057.56 C 927.961 1060.96 923.03 1063.42 922.583 1067.21 C 932.97 1066.9 950.725 1034.68 967.432 1072.69 C 969.252 1076.83 974.657 1085.45 977.14 1089.86 C 976.764 1092.66 975.074 1098.86 974.345 1101.87 C 952.172 1082.42 921.86 1077 893.952 1072.69 C 892.406 1061.31 890.971 1059.47 900.822 1053.12 z"/>
<path transform="translate(0,0)" fill="rgb(255,255,255)" d="M 736.958 1020.58 C 742.98 1021.21 789.88 1053.11 798.387 1058.65 C 792.033 1057.47 785.09 1056.59 778.654 1055.65 L 712.238 1046.6 C 720.514 1038.17 728.748 1029.17 736.958 1020.58 z"/>
<path transform="translate(0,0)" fill="rgb(255,255,255)" d="M 642.327 625.487 C 646.059 627.909 653.334 640.084 656.605 644.517 C 655.049 652.421 652.55 678.323 649.866 686.78 C 649.805 686.972 649.032 686.953 648.679 686.83 C 647.095 686.275 645.798 683.802 645.013 682.482 C 642.74 678.319 623.6 640.306 624.267 639.07 C 626.114 638.135 634.683 640.133 636.591 635.686 C 638.352 631.58 639.65 629.076 642.327 625.487 z"/>
<path transform="translate(0,0)" fill="rgb(255,255,255)" d="M 896.949 1005.54 C 898.668 1006.99 935.732 1052.87 935.604 1052.54 C 935.738 1052.88 935.713 1053.26 935.536 1053.57 C 934.175 1055.98 931.34 1054.97 929.596 1053.71 C 913.928 1045.56 907.913 1045.25 892.048 1052.33 C 892.324 1038.39 893.784 1018.98 896.949 1005.54 z"/>
<path transform="translate(0,0)" fill="rgb(224,223,239)" d="M 244.944 607.048 C 247.815 606.077 252.004 605.048 254.956 604.509 C 258.164 606.71 260.36 605.825 264.287 606.114 C 259.606 607.088 251.839 607.613 246.462 608.383 L 244.944 607.048 z"/>
<path transform="translate(0,0)" fill="rgb(105,106,169)" d="M 246.462 608.383 C 245.578 608.589 241.169 609.695 240.642 608.502 C 241.228 607.425 243.896 607.206 244.944 607.048 L 246.462 608.383 z"/>
<path transform="translate(0,0)" fill="rgb(218,141,67)" d="M 1836.26 185.499 C 1841.17 183.593 1847.97 180.089 1852.59 181.984 C 1851.55 189.338 1800.45 216.468 1790.74 222.142 L 1651.93 302.404 L 1233.32 545.753 C 1249.11 562.682 1267.77 577.162 1283.56 593.172 C 1204.68 591.997 1125.24 593.453 1046.3 592.787 C 1073.44 526.093 1108.19 457.479 1134.48 390.539 C 1147.96 409.781 1162.07 428.58 1176.77 446.906 L 1528.46 304.613 L 1638.37 260.784 C 1646.22 257.684 1678.63 245.628 1683.04 242.832 C 1710.75 231.837 1738.69 221.415 1766.83 211.571 C 1787.4 204.234 1816.54 194.222 1836.26 185.499 z"/>
<path transform="translate(0,0)" fill="rgb(75,206,158)" d="M 1830.57 85.4993 C 1841.25 85.8257 1851.93 85.9232 1862.61 85.7919 C 1867.57 94.8693 1889.78 129.39 1885.13 137.033 L 1881.99 137.706 C 1876.58 135.941 1865.58 110.878 1859.92 103.765 L 1859.35 103.061 C 1864.53 130.586 1867.23 154.267 1874.02 181.877 C 1884.77 182.783 1895.51 183.786 1906.25 184.886 C 1886.12 208.59 1858.23 233.978 1836.26 257.332 C 1816.77 256.356 1793.68 253.407 1774.01 251.359 C 1798.07 234.042 1834.08 208.092 1859.03 192.66 C 1854.13 178.023 1851.91 160.23 1846.26 146.071 C 1843.47 158.81 1839.41 172.637 1836.26 185.499 C 1816.54 194.222 1787.4 204.234 1766.83 211.571 C 1738.69 221.415 1710.75 231.837 1683.04 242.832 L 1681.52 242.05 L 1681.47 240.641 C 1693.74 231.179 1791.34 184.499 1808 179.112 C 1811.87 177.859 1816.26 178.169 1820.29 178.259 C 1825.85 155.918 1830.82 125.62 1833.63 102.487 C 1827.96 111.123 1816.99 135.521 1808.08 137.503 C 1805.31 135.654 1806.09 136.698 1804.89 133.716 C 1805.81 126.115 1825.34 94.4581 1830.57 85.4993 z"/>
<path transform="translate(0,0)" fill="rgb(75,206,158)" d="M 1573.86 228.746 C 1616.2 217.224 1658.76 199.956 1701.32 188.295 C 1716.2 184.217 1731.06 176.991 1746.38 174.603 C 1754.47 173.44 1777.14 176.044 1786.33 176.397 L 1698.57 212.889 C 1685.12 218.56 1650.03 234.628 1636.9 237.52 C 1630.11 239.016 1587.97 233.437 1577.75 232.459 L 1573.86 228.746 z"/>
<path transform="translate(0,0)" fill="rgb(75,206,158)" d="M 1927.21 187.658 C 1938.78 187.653 1951.79 188.886 1963.43 189.737 C 1952.27 211.307 1940.22 243.623 1929.79 267.099 L 1905.76 264.749 C 1893.11 263.64 1880.48 262.368 1867.87 260.934 C 1885.2 237.978 1908.76 210.54 1927.21 187.658 z"/>
<path transform="translate(0,0)" fill="rgb(75,206,158)" d="M 1842.54 46.2776 C 1847.64 44.7674 1853.15 46.1162 1856.98 49.8084 C 1860.8 53.5005 1862.34 58.9649 1861.01 64.1119 C 1859.68 69.2589 1855.69 73.2924 1850.55 74.6699 C 1842.76 76.7619 1834.73 72.1983 1832.53 64.4291 C 1830.34 56.6599 1834.8 48.5711 1842.54 46.2776 z"/>
<path transform="translate(0,0)" fill="rgb(132,209,177)" d="M 1577.75 232.459 C 1572.43 232.121 1562.43 232.623 1573.86 228.746 L 1577.75 232.459 z"/>
</svg>